# xmcd CD database file
#
# Track frame offsets:
#	182
#	21870
#	39755
#	57350
#	78125
#	97085
#	114185
#	136200
#	158192
#	177100
#	194382
#	210967
#
# Disc length: 3040 seconds
#
# Revision: 0
# Processed by: cddbd v1.5.2PL0 Copyright (c) Steve Scherf et al.
# Submitted via: CDex 1.51
#
DISCID=8d0bde0c
DTITLE=Patricia Teheran - adios a la diosa
DYEAR=1900
DGENRE=Salsa
TTITLE0=todo daria por ti
TTITLE1=cambiare
TTITLE2=voy a esperarte
TTITLE3=me dejaste sin nada
TTITLE4=acaso no me crees
TTITLE5=asi lo quisiste
TTITLE6=tarde lo conoci
TTITLE7=que desastre
TTITLE8=vete y no vuelvas
TTITLE9=amor de papel
TTITLE10=donde esta- ras sin mi
TTITLE11=volvi a fallar
EXTD=
EXTT0=
EXTT1=
EXTT2=
EXTT3=
EXTT4=
EXTT5=
EXTT6=
EXTT7=
EXTT8=
EXTT9=
EXTT10=
EXTT11=
PLAYORDER=
